<?xml version="1.0" encoding="iso-8859-1"?>
<!-- Generator: Adobe Illustrator 19.0.0, SVG Export Plug-In . SVG Version: 6.00 Build 0)  -->
<svg version="1.1" id="Capa_1" xmlns="http://www.w3.org/2000/svg" xmlns:xlink="http://www.w3.org/1999/xlink" x="0px" y="0px"
	 viewBox="0 0 512 512" style="enable-background:new 0 0 512 512;" xml:space="preserve">
<g>
	<g>
		<path d="M392,150V60h-30V0H150v60h-30v90H0v362h512V150H392z M120,482H30V180h90V482z M180,30h152v30H180V30z M241,482h-91V360h91
			V482z M362,482h-91V360h91V482z M362,330H150v-60h212V330z M362,240H150v-60h212V240z M362,150H150V90h212V150z M482,482h-90V180
			h90V482z"/>
	</g>
</g>
<g>
	<g>
		<rect x="60" y="210" width="30" height="60"/>
	</g>
</g>
<g>
	<g>
		<rect x="60" y="300" width="30" height="60"/>
	</g>
</g>
<g>
	<g>
		<rect x="422" y="210" width="30" height="60"/>
	</g>
</g>
<g>
	<g>
		<rect x="422" y="300" width="30" height="60"/>
	</g>
</g>
<g>
</g>
<g>
</g>
<g>
</g>
<g>
</g>
<g>
</g>
<g>
</g>
<g>
</g>
<g>
</g>
<g>
</g>
<g>
</g>
<g>
</g>
<g>
</g>
<g>
</g>
<g>
</g>
<g>
</g>
</svg>
