<?xml version="1.0"?>
<svg xmlns="http://www.w3.org/2000/svg" viewBox="0 0 64 64" width="512" height="512"><g id="outline"><path d="M61,18H60V15a1,1,0,0,0-1-1H48V3a1,1,0,0,0-1-1H17a1,1,0,0,0-1,1V14H5a1,1,0,0,0-1,1v3H3a1,1,0,0,0-1,1V61a1,1,0,0,0,1,1H61a1,1,0,0,0,1-1V19A1,1,0,0,0,61,18ZM16,60H4V20H16Zm0-42H6V16H16ZM31,60H23V54h8Zm10,0H33V54h8Zm5-45V60H43V53a1,1,0,0,0-1-1H22a1,1,0,0,0-1,1v7H18V4H46Zm2,1H58v2H48ZM60,60H48V20H60Z"/><path d="M29.72,25.082l1.874.832a1,1,0,0,0,.812,0l1.874-.833A13.011,13.011,0,0,0,42,13.2V10a1,1,0,0,0-1-1,14.094,14.094,0,0,1-8.4-2.8,1,1,0,0,0-1.2,0A14.094,14.094,0,0,1,23,9a1,1,0,0,0-1,1v3.2A13.013,13.013,0,0,0,29.72,25.082ZM24,10.968a16.13,16.13,0,0,0,8-2.74,16.13,16.13,0,0,0,8,2.74V13.2a11.008,11.008,0,0,1-6.532,10.051L32,23.906l-1.468-.652A11.011,11.011,0,0,1,24,13.2Z"/><rect x="31" y="11" width="2" height="2"/><rect x="34" y="18" width="2" height="2"/><rect x="26" y="13" width="2" height="2"/><rect x="36" y="13" width="2" height="2"/><rect x="28" y="18" width="2" height="2"/><path d="M22,50h4a1,1,0,0,0,1-1V45a1,1,0,0,0-1-1H22a1,1,0,0,0-1,1v4A1,1,0,0,0,22,50Zm1-4h2v2H23Z"/><path d="M34,44H30a1,1,0,0,0-1,1v4a1,1,0,0,0,1,1h4a1,1,0,0,0,1-1V45A1,1,0,0,0,34,44Zm-1,4H31V46h2Z"/><path d="M42,44H38a1,1,0,0,0-1,1v4a1,1,0,0,0,1,1h4a1,1,0,0,0,1-1V45A1,1,0,0,0,42,44Zm-1,4H39V46h2Z"/><path d="M22,42h4a1,1,0,0,0,1-1V37a1,1,0,0,0-1-1H22a1,1,0,0,0-1,1v4A1,1,0,0,0,22,42Zm1-4h2v2H23Z"/><path d="M34,36H30a1,1,0,0,0-1,1v4a1,1,0,0,0,1,1h4a1,1,0,0,0,1-1V37A1,1,0,0,0,34,36Zm-1,4H31V38h2Z"/><path d="M42,36H38a1,1,0,0,0-1,1v4a1,1,0,0,0,1,1h4a1,1,0,0,0,1-1V37A1,1,0,0,0,42,36Zm-1,4H39V38h2Z"/><path d="M22,34h4a1,1,0,0,0,1-1V29a1,1,0,0,0-1-1H22a1,1,0,0,0-1,1v4A1,1,0,0,0,22,34Zm1-4h2v2H23Z"/><path d="M34,28H30a1,1,0,0,0-1,1v4a1,1,0,0,0,1,1h4a1,1,0,0,0,1-1V29A1,1,0,0,0,34,28Zm-1,4H31V30h2Z"/><path d="M38,28a1,1,0,0,0-1,1v4a1,1,0,0,0,1,1h4a1,1,0,0,0,1-1V29a1,1,0,0,0-1-1Zm3,4H39V30h2Z"/><path d="M8,50h4a1,1,0,0,0,1-1V45a1,1,0,0,0-1-1H8a1,1,0,0,0-1,1v4A1,1,0,0,0,8,50Zm1-4h2v2H9Z"/><path d="M8,42h4a1,1,0,0,0,1-1V37a1,1,0,0,0-1-1H8a1,1,0,0,0-1,1v4A1,1,0,0,0,8,42Zm1-4h2v2H9Z"/><path d="M8,34h4a1,1,0,0,0,1-1V29a1,1,0,0,0-1-1H8a1,1,0,0,0-1,1v4A1,1,0,0,0,8,34Zm1-4h2v2H9Z"/><path d="M56,44H52a1,1,0,0,0-1,1v4a1,1,0,0,0,1,1h4a1,1,0,0,0,1-1V45A1,1,0,0,0,56,44Zm-1,4H53V46h2Z"/><path d="M56,36H52a1,1,0,0,0-1,1v4a1,1,0,0,0,1,1h4a1,1,0,0,0,1-1V37A1,1,0,0,0,56,36Zm-1,4H53V38h2Z"/><path d="M56,28H52a1,1,0,0,0-1,1v4a1,1,0,0,0,1,1h4a1,1,0,0,0,1-1V29A1,1,0,0,0,56,28Zm-1,4H53V30h2Z"/></g></svg>
