<svg height="464pt" viewBox="0 0 464 464" width="464pt" xmlns="http://www.w3.org/2000/svg"><path d="m384 376h32v56h-32zm0 0"/><path d="m448 328v-16h-240v16h208v16h-224v-72h-176v160h32v-112h16v112h32v-112h16v112h32v-112h16v112h48v-72h64v72h16v-72h64v72h16v-72h64v72h16v-88h-16v-16zm-384-24h-16v-16h16zm48 0h-16v-16h16zm48 0h-16v-16h16zm0 0"/><path d="m240 0h112v32h-112zm0 0"/><path d="m224 376h32v56h-32zm0 0"/><path d="m224 296v-248h-144v208h128v40zm-128-232h112v16h-112zm96 32v16h-16v-16zm-32 0v16h-16v-16zm-32 0v16h-16v-16zm-32 32h112v16h-112zm96 32v16h-16v-16zm-32 0v16h-16v-16zm-32 0v16h-16v-16zm0 80h-16v-16h16zm32 0h-16v-16h16zm32 0h-16v-16h16zm-96-32v-16h112v16zm0 0"/><path d="m304 376h32v56h-32zm0 0"/><path d="m16 88h48v-56h32v-14.839844c-3.960938 1.0625-7.753906 2.816406-11.175781 5.398438l-4.824219 3.640625-4.824219-3.640625c-5.679687-4.285156-12.320312-6.558594-19.175781-6.558594-17.648438 0-32 14.351562-32 32v8h-8c-8.824219 0-16 7.175781-16 16s7.175781 16 16 16zm0 0"/><path d="m384 264h-64c-17.648438 0-32-14.351562-32-32 0-9.558594 4.230469-18.128906 10.902344-24h-42.902344v-16h58.792969c6.613281-18.609375 24.359375-32 45.207031-32 8.464844 0 16.65625 2.257812 24 6.566406v-118.566406h-144v248h144zm-96-88h-16v-16h16zm32 0h-16v-16h16zm-64-112h112v16h-112zm96 32v16h-16v-16zm-32 0v16h-16v-16zm-32 0v16h-16v-16zm-32 32h112v16h-112zm0 0"/><path d="m0 448h464v16h-464zm0 0"/><path d="m112 0h112v32h-112zm0 0"/><path d="m379.175781 182.558594c-5.679687-4.285156-12.320312-6.558594-19.175781-6.558594-17.648438 0-32 14.351562-32 32v8h-8c-8.824219 0-16 7.175781-16 16s7.175781 16 16 16h128c8.824219 0 16-7.175781 16-16s-7.175781-16-16-16h-8v-8c0-17.648438-14.351562-32-32-32-6.855469 0-13.496094 2.273438-19.175781 6.558594l-4.824219 3.640625zm0 0"/></svg>